#!OML:ASF H:\ManfredETheater\Project 1\Capture day 1\Session 1\subject.ASF
:FULLY-SPECIFIED
:DEGREES
62
root -2.11865 19.3687 19.2859 -163.651 0.371223 172.976
lowerback 23.447 1.76965 -3.482
upperback 2.95705 0.667141 -1.21722
thorax -9.87317 0.158322 0.48427
lowerneck -15.0583 -2.81945 -3.39856
upperneck 1.66601 -3.43816 0.881551
head 3.29019 -1.80535 0.632294
rclavicle -1.63003e-014 2.78299e-015
rhumerus -41.4417 1.09826 -91.6327
rradius 79.5794
rwrist -14.3516
rhand -29.9321 -5.12183
rfingers 7.12502
rthumb -3.25193 -35.0768
lclavicle -1.63003e-014 2.78299e-015
lhumerus -42.1559 -13.1893 100.013
lradius 93.4081
lwrist 17.8644
lhand -28.1818 -16.2661
lfingers 7.12502
lthumb -1.5615 13.7079
rfemur -37.1216 -13.9092 14.3753
rtibia 101.981
rfoot -6.29304 -9.38908
rtoes -17.629
lfemur -60.6643 -1.02494 -32.4561
ltibia 75.4402
lfoot -26.5324 -6.16771
ltoes 6.69725
63
root -2.11199 19.3798 18.8912 -163.462 0.420293 172.567
lowerback 23.4375 1.59654 -3.80305
upperback 2.80527 0.368469 -1.24684
thorax -10.0311 0.0404336 0.72669
lowerneck -15.2361 -2.70262 -3.41762
upperneck 1.49602 -3.29147 0.884605
head 3.2613 -1.73902 0.64658
rclavicle 8.34896e-015 7.95139e-015
rhumerus -42.786 0.835487 -91.0489
rradius 79.3939
rwrist -13.1982
rhand -30.0653 -4.4409
rfingers 7.12502
rthumb -3.38051 -34.3938
lclavicle 8.34896e-015 7.95139e-015
lhumerus -40.6584 -13.7815 100.125
lradius 92.7404
lwrist 17.4563
lhand -28.375 -16.3713
lfingers 7.12502
lthumb -1.74808 13.6013
rfemur -41.1288 -14.7777 14.1202
rtibia 105.302
rfoot -7.99849 -9.27692
rtoes -17.6727
lfemur -59.0709 -1.00652 -32.8193
ltibia 75.524
lfoot -28.233 -6.09023
ltoes 6.67254
64
root -2.10407 19.3947 18.4943 -163.246 0.474808 172.277
lowerback 23.3743 1.39665 -4.02064
upperback 2.64295 0.070387 -1.25017
thorax -10.1684 -0.0780175 0.939389
lowerneck -15.449 -2.56783 -3.41524
upperneck 1.37456 -3.12188 0.876778
head 3.25493 -1.66141 0.654723
rclavicle -5.96354e-015 -1.70955e-014
rhumerus -44.1046 0.661461 -90.4518
rradius 79.282
rwrist -11.9365
rhand -30.0557 -3.68207
rfingers 7.12502
rthumb -3.3712 -33.6352
lclavicle -5.96354e-015 -1.70955e-014
lhumerus -39.3957 -14.2429 100.218
lradius 92.5629
lwrist 16.6031
lhand -28.4303 -16.4006
lfingers 7.12502
lthumb -1.80149 13.5715
rfemur -45.1792 -15.4236 14.1257
rtibia 108.022
rfoot -9.49824 -9.13872
rtoes -17.9489
lfemur -57.4097 -0.848359 -33.0895
ltibia 75.4454
lfoot -29.928 -6.09564
ltoes 6.87903
65
root -2.09444 19.4156 18.0938 -163.015 0.526264 172.065
lowerback 23.2519 1.16653 -4.17042
upperback 2.47912 -0.242871 -1.23807
thorax -10.2723 -0.204823 1.13521
lowerneck -15.6864 -2.4094 -3.38466
upperneck 1.29364 -2.92372 0.861512
head 3.26613 -1.56947 0.657409
rclavicle -3.57812e-015 -6.75868e-015
rhumerus -45.3764 0.571358 -89.8709
rradius 79.2637
rwrist -10.8342
rhand -29.9345 -2.95451
rfingers 7.12502
rthumb -3.25422 -32.9094
lclavicle -3.57812e-015 -6.75868e-015
lhumerus -38.3533 -14.5745 100.293
lradius 92.8697
lwrist 15.4785
lhand -28.3478 -16.3829
lfingers 7.12502
lthumb -1.72183 13.5899
rfemur -49.2189 -15.8212 14.3283
rtibia 110.111
rfoot -10.7704 -8.9403
rtoes -18.4306
lfemur -55.6429 -0.56562 -33.3114
ltibia 75.1713
lfoot -31.5781 -6.13603
ltoes 7.33715
66
root -2.0831 19.4446 17.6886 -162.777 0.55167 171.912
lowerback 23.0795 0.897449 -4.25751
upperback 2.30952 -0.584902 -1.21399
thorax -10.352 -0.346373 1.3167
lowerneck -15.9223 -2.22423 -3.31702
upperneck 1.2488 -2.69441 0.831191
head 3.28816 -1.4619 0.65114
rclavicle 2.38542e-015 5.1684e-015
rhumerus -46.6186 0.55494 -89.3277
rradius 79.366
rwrist -10.0402
rhand -29.7506 -2.33434
rfingers 7.12502
rthumb -3.07665 -32.2919
lclavicle 2.38542e-015 5.1684e-015
lhumerus -37.5222 -14.7968 100.358
lradius 93.6262
lwrist 14.3083
lhand -28.1558 -16.2981
lfingers 7.12502
lthumb -1.53639 13.6761
rfemur -53.1766 -15.9688 14.6759
rtibia 111.543
rfoot -11.8354 -8.69321
rtoes -19.1912
lfemur -53.7474 -0.196918 -33.4932
ltibia 74.6773
lfoot -33.1429 -6.16191
ltoes 7.85908
67
root -2.07025 19.4831 17.2782 -162.535 0.5351 171.804
lowerback 22.8626 0.587611 -4.28255
upperback 2.13525 -0.959093 -1.17785
thorax -10.4095 -0.504699 1.4846
lowerneck -16.1562 -2.01662 -3.21976
upperneck 1.23734 -2.43865 0.787243
head 3.32054 -1.34107 0.637434
rclavicle 2.26615e-014 1.94809e-014
rhumerus -47.8332 0.594953 -88.8274
rradius 79.6023
rwrist -9.60763
rhand -29.5451 -1.85078
rfingers 7.12502
rthumb -2.87811 -31.8111
lclavicle 2.26615e-014 1.94809e-014
lhumerus -36.8651 -14.9565 100.426
lradius 94.7616
lwrist 13.3489
lhand -27.9037 -16.2392
lfingers 7.12502
lthumb -1.29293 13.7367
rfemur -56.9875 -15.8789 15.1104
rtibia 112.302
rfoot -12.6904 -8.39065
rtoes -20.167
lfemur -51.7189 0.206957 -33.6241
ltibia 73.9496
lfoot -34.5756 -6.14688
ltoes 8.28395
68
root -2.05628 19.5324 16.8622 -162.284 0.48277 171.745
lowerback 22.6026 0.247126 -4.24789
upperback 1.95508 -1.35195 -1.12061
thorax -10.448 -0.673235 1.64519
lowerneck -16.3859 -1.79439 -3.10609
upperneck 1.25272 -2.16482 0.72869
head 3.36122 -1.21144 0.61775
rclavicle -6.16232e-015 -1.51076e-014
rhumerus -49.028 0.680318 -88.3581
rradius 79.9936
rwrist -9.51079
rhand -29.3609 -1.52542
rfingers 7.12502
rthumb -2.70021 -31.4881
lclavicle -6.16232e-015 -1.51076e-014
lhumerus -36.3401 -15.0943 100.513
lradius 96.1881
lwrist 12.7767
lhand -27.6317 -16.2005
lfingers 7.12502
lthumb -1.0302 13.7768
rfemur -60.5933 -15.5606 15.5879
rtibia 112.385
rfoot -13.3491 -8.04416
rtoes -21.2349
lfemur -49.5769 0.606873 -33.6782
ltibia 72.9865
lfoot -35.8382 -6.10741
ltoes 8.62431
69
root -2.04206 19.594 16.4399 -162.038 0.413087 171.744
lowerback 22.3234 -0.106719 -4.1469
upperback 1.77115 -1.74107 -1.03646
thorax -10.4797 -0.841938 1.79401
lowerneck -16.6265 -1.99412 -2.85678
upperneck 1.30441 -1.78024 0.637823
head 3.41779 -0.732391 0.589619
rclavicle -2.62396e-014 -2.98177e-014
rhumerus -50.2246 0.789288 -87.8992
rradius 80.5598
rwrist -9.64741
rhand -29.2256 -1.34758
rfingers 7.12502
rthumb -2.56959 -31.3119
lclavicle -2.62396e-014 -2.98177e-014
lhumerus -35.9111 -15.2519 100.633
lradius 97.8104
lwrist 12.655
lhand -27.3575 -16.1724
lfingers 7.12502
lthumb -0.765418 13.806
rfemur -63.9077 -15.0384 16.0619
rtibia 111.796
rfoot -13.8598 -7.68125
rtoes -22.4347
lfemur -47.3191 0.970131 -33.6301
ltibia 71.7924
lfoot -36.8767 -5.99766
ltoes 8.55518
70
root -2.02761 19.6675 16.0118 -161.776 0.325132 171.785
lowerback 22.0184 -0.462657 -3.99681
upperback 1.57722 -2.115 -0.920362
thorax -10.5086 -1.00418 1.94261
lowerneck -16.8708 -1.77524 -2.73314
upperneck 1.37532 -1.49601 0.522062
head 3.48162 -0.595426 0.551336
rclavicle -1.5704e-014 -1.19271e-014
rhumerus -51.4305 0.887047 -87.4202
rradius 81.2894
rwrist -9.86582
rhand -29.1425 -1.24523
rfingers 7.12502
rthumb -2.48931 -31.2104
lclavicle -1.5704e-014 -1.19271e-014
lhumerus -35.5529 -15.4538 100.8
lradius 99.5274
lwrist 12.9328
lhand -27.0949 -16.1777
lfingers 7.12502
lthumb -0.511738 13.8014
rfemur -66.9076 -14.3833 16.4936
rtibia 110.559
rfoot -14.2668 -7.31176
rtoes -23.7178
lfemur -44.9914 1.23331 -33.4813
ltibia 70.383
lfoot -37.6338 -5.80343
ltoes 7.92996
71
root -2.01308 19.7534 15.5773 -161.523 0.248203 171.862
lowerback 21.7058 -0.79527 -3.81733
upperback 1.38705 -2.44895 -0.773895
thorax -10.5302 -1.14891 2.09341
lowerneck -17.1316 -1.56788 -2.61115
upperneck 1.45663 -1.22305 0.362404
head 3.55308 -0.466225 0.498124
rclavicle 1.51076e-014 1.63003e-014
rhumerus -52.6339 0.936439 -86.8976
rradius 82.1491
rwrist -10.0184
rhand -29.1074 -1.13256
rfingers 7.12502
rthumb -2.45547 -31.0982
lclavicle 1.51076e-014 1.63003e-014
lhumerus -35.2446 -15.7156 101.014
lradius 101.257
lwrist 13.4849
lhand -26.8425 -16.2213
lfingers 7.12502
lthumb -0.267954 13.7583
rfemur -69.5179 -13.6344 16.8468
rtibia 108.703
rfoot -14.6018 -6.92627
rtoes -24.9294
lfemur -42.5833 1.37528 -33.238
ltibia 68.7751
lfoot -38.0743 -5.56444
ltoes 6.86608
72
root -1.99865 19.8504 15.1362 -161.299 0.207179 171.96
lowerback 21.3972 -1.08543 -3.63332
upperback 1.21031 -2.72706 -0.604386
thorax -10.5405 -1.26873 2.24839
lowerneck -17.3972 -1.37587 -2.4861
upperneck 1.53093 -0.966389 0.152958
head 3.62389 -0.347141 0.42666
rclavicle 9.34288e-015 1.11319e-014
rhumerus -53.8334 0.903922 -86.3164
rradius 83.0963
rwrist -9.99826
rhand -29.0952 -0.902195
rfingers 7.12502
rthumb -2.44362 -30.8679
lclavicle 9.34288e-015 1.11319e-014
lhumerus -34.9826 -16.0356 101.276
lradius 102.924
lwrist 14.1171
lhand -26.607 -16.3184
lfingers 7.12502
lthumb -0.0405529 13.6613
rfemur -71.6885 -12.8403 17.0956
rtibia 106.275
rfoot -14.9341 -6.52544
rtoes -26.0641
lfemur -40.09 1.37949 -32.9288
ltibia 66.9941
lfoot -38.1825 -5.27476
ltoes 5.25021
73
root -1.98394 19.9562 14.6889 -161.122 0.215317 172.06
lowerback 21.1062 -1.32094 -3.46894
upperback 1.05355 -2.9417 -0.420307
thorax -10.5395 -1.35968 2.41067
lowerneck -17.6566 -1.20013 -2.35539
upperneck 1.58592 -0.727455 -0.106679
head 3.68772 -0.238637 0.336069
rclavicle 1.23246e-014 1.11319e-014
rhumerus -55.0115 0.762265 -85.6744
rradius 84.0831
rwrist -9.76526
rhand -29.0767 -0.572744
rfingers 7.12502
rthumb -2.42579 -30.5387
lclavicle 1.23246e-014 1.11319e-014
lhumerus -34.7804 -16.4046 101.586
lradius 104.47
lwrist 14.6488
lhand -26.3818 -16.4497
lfingers 7.12502
lthumb 0.176982 13.53
rfemur -73.3981 -12.041 17.2367
rtibia 103.337
rfoot -15.2628 -6.10781
rtoes -27.1319
lfemur -37.5174 1.23287 -32.583
ltibia 65.0724
lfoot -37.9298 -4.95239
ltoes 3.1165
